<svg xmlns="http://www.w3.org/2000/svg" width="32" height="32" viewBox="0 0 32 32" fill="none">
  <!-- 背景圆 -->
  <circle cx="16" cy="16" r="16" fill="#FF6B35"/>

  <!-- 游戏手柄剪影 -->
  <path d="M16 8C11.5 8 8.5 9.5 7 12C5.5 14.5 5.5 17.5 6.5 19.5C7.5 21.5 9 22 10.5 20.5L11.5 19.5C11.8 19.2 12.2 19 12.7 19H19.3C19.8 19 20.2 19.2 20.5 19.5L21.5 20.5C23 22 24.5 21.5 25.5 19.5C26.5 17.5 26.5 14.5 25 12C23.5 9.5 20.5 8 16 8Z"
        fill="white"/>

  <!-- 十字键 -->
  <rect x="10" y="12.5" width="1.2" height="4" rx="0.3" fill="#FF6B35"/>
  <rect x="8.9" y="13.6" width="3.4" height="1.2" rx="0.3" fill="#FF6B35"/>

  <!-- 按钮组 -->
  <circle cx="19.5" cy="13" r="0.9" fill="#FF6B35"/>
  <circle cx="21.5" cy="15" r="0.9" fill="#FF6B35"/>
  <circle cx="19.5" cy="17" r="0.9" fill="#FF6B35"/>
  <circle cx="17.5" cy="15" r="0.9" fill="#FF6B35"/>
</svg>
